<svg id="visual" viewBox="0 0 1500 800" width="1500" height="800" xmlns="http://www.w3.org/2000/svg" xmlns:xlink="http://www.w3.org/1999/xlink" version="1.1"><rect x="0" y="0" width="1500" height="800" fill="#FFFFFF"></rect><path d="M0 593L41.7 580C83.3 567 166.7 541 250 517.3C333.3 493.7 416.7 472.3 500 482.2C583.3 492 666.7 533 750 547.3C833.3 561.7 916.7 549.3 1000 526.7C1083.3 504 1166.7 471 1250 466C1333.3 461 1416.7 484 1458.3 495.5L1500 507L1500 801L1458.3 801C1416.7 801 1333.3 801 1250 801C1166.7 801 1083.3 801 1000 801C916.7 801 833.3 801 750 801C666.7 801 583.3 801 500 801C416.7 801 333.3 801 250 801C166.7 801 83.3 801 41.7 801L0 801Z" fill="#000000" stroke-linecap="round" stroke-linejoin="miter"></path></svg>